<?xml version="1.0" encoding="utf-8"?>
<!-- Generator: Adobe Illustrator 16.0.0, SVG Export Plug-In . SVG Version: 6.00 Build 0)  -->
<!DOCTYPE svg PUBLIC "-//W3C//DTD SVG 1.1//EN" "http://www.w3.org/Graphics/SVG/1.1/DTD/svg11.dtd">
<svg version="1.1" id="Layer_1" xmlns="http://www.w3.org/2000/svg" xmlns:xlink="http://www.w3.org/1999/xlink" x="0px" y="0px"
	 width="97.418px" height="379.064px" viewBox="4.625 4.645 97.418 379.064" enable-background="new 4.625 4.645 97.418 379.064"
	 xml:space="preserve">
<path fill="none" stroke="#000000" stroke-width="0.7087" stroke-miterlimit="10" d="M101.334,330c0,0.553-0.447,1-1,1h-94
	c-0.552,0-1-0.447-1-1V6c0-0.552,0.448-1,1-1h94c0.553,0,1,0.448,1,1V330z"/>
<polygon fill="none" stroke="#000000" stroke-width="1.4173" stroke-miterlimit="10" points="98.5,383 101.334,380.356 
	101.334,337.834 98.334,335 8.334,335 5.334,337.788 5.334,380.356 8.168,383 "/>
<line fill="none" stroke="#000000" stroke-miterlimit="10" x1="19.334" y1="335.5" x2="19.334" y2="383.5"/>
<line fill="none" stroke="#000000" stroke-miterlimit="10" x1="87.334" y1="335.5" x2="87.334" y2="383.5"/>
<circle fill="none" stroke="#000000" stroke-miterlimit="10" cx="93.961" cy="345.176" r="3.756"/>
<circle fill="none" stroke="#000000" stroke-miterlimit="10" cx="12.607" cy="345.176" r="3.756"/>
<circle fill="none" stroke="#000000" stroke-miterlimit="10" cx="93.96" cy="358.929" r="5.103"/>
<circle fill="none" stroke="#000000" stroke-miterlimit="10" cx="12.607" cy="358.929" r="5.103"/>
<line fill="none" stroke="#000000" stroke-miterlimit="10" x1="12.607" y1="358.928" x2="13.81" y2="357.727"/>
<line fill="none" stroke="#000000" stroke-miterlimit="10" x1="12.607" y1="358.928" x2="13.809" y2="360.131"/>
<line fill="none" stroke="#000000" stroke-miterlimit="10" x1="11.404" y1="357.727" x2="12.607" y2="358.928"/>
<line fill="none" stroke="#000000" stroke-miterlimit="10" x1="11.404" y1="360.131" x2="12.607" y2="358.928"/>
<line fill="none" stroke="#000000" stroke-miterlimit="10" x1="93.96" y1="358.928" x2="95.164" y2="357.727"/>
<line fill="none" stroke="#000000" stroke-miterlimit="10" x1="95.164" y1="360.131" x2="93.96" y2="358.928"/>
<line fill="none" stroke="#000000" stroke-miterlimit="10" x1="93.96" y1="358.928" x2="92.758" y2="357.727"/>
<line fill="none" stroke="#000000" stroke-miterlimit="10" x1="93.96" y1="358.928" x2="92.758" y2="360.131"/>
<circle fill="none" stroke="#000000" stroke-miterlimit="10" cx="93.961" cy="376.246" r="1.487"/>
<circle fill="none" stroke="#000000" stroke-miterlimit="10" cx="12.607" cy="376.246" r="1.487"/>
<path fill="none" stroke="#000000" stroke-width="1.4173" stroke-miterlimit="10" d="M84.499,383l-5.414-42.826
	c0-0.111-0.127-0.174-0.283-0.174H27.923c-0.156,0-0.284,0.063-0.284,0.174l-5.471,42.84"/>
<line fill="none" stroke="#000000" stroke-width="1.4173" stroke-miterlimit="10" x1="98.334" y1="335" x2="98.334" y2="331"/>
<line fill="none" stroke="#000000" stroke-width="1.4173" stroke-miterlimit="10" x1="8.334" y1="335" x2="8.334" y2="331"/>
<path id="ind1" fill="none" stroke="none" d="M82.515,381.159l-5.07-39.156c0-0.101-0.119-0.159-0.265-0.159h-47.64
	c-0.146,0-0.266,0.059-0.266,0.159l-5.123,39.169L82.515,381.159z"/>
<path id="ind2" fill="none" stroke="none" d="M99.208,327.888c0,0.545-0.427,0.986-0.955,0.986H8.416
	c-0.528,0-0.956-0.441-0.956-0.986V8.113c0-0.545,0.428-0.987,0.956-0.987h89.837c0.528,0,0.955,0.442,0.955,0.987V327.888z"/>
</svg>
