<?xml version="1.0" encoding="utf-8"?>
<!-- Generator: Adobe Illustrator 16.0.0, SVG Export Plug-In . SVG Version: 6.00 Build 0)  -->
<!DOCTYPE svg PUBLIC "-//W3C//DTD SVG 1.1//EN" "http://www.w3.org/Graphics/SVG/1.1/DTD/svg11.dtd">
<svg version="1.1" id="Layer_1" xmlns="http://www.w3.org/2000/svg" xmlns:xlink="http://www.w3.org/1999/xlink" x="0px" y="0px"
	 width="96.167px" height="93.002px" viewBox="0 0 96.167 93.002" enable-background="new 0 0 96.167 93.002" xml:space="preserve">
<path fill="#000000" d="M92.904,34.763l-7.109-4.216c-3.329-1.98-5.386-5.632-5.386-9.583v-8.432c0-1.727-0.765-3.353-2.068-4.438
	c-3.877-3.22-8.24-5.832-12.958-7.702c-1.573-0.62-3.328-0.498-4.782,0.365l-7.12,4.227c-3.328,1.981-7.433,1.981-10.771,0
	l-7.12-4.227c-1.454-0.863-3.221-0.996-4.783-0.365c-4.729,1.87-9.08,4.482-12.947,7.691c-1.303,1.084-2.068,2.711-2.068,4.437
	v8.432c0,3.95-2.047,7.602-5.386,9.583l-7.109,4.216c-1.454,0.863-2.445,2.357-2.704,4.061C0.194,41.325,0,43.893,0,46.503
	c0,2.612,0.194,5.178,0.582,7.68c0.258,1.703,1.25,3.209,2.704,4.072l7.109,4.215c3.328,1.982,5.386,5.633,5.386,9.584v8.432
	c0,1.727,0.765,3.354,2.068,4.438c3.867,3.209,8.229,5.82,12.947,7.689c1.573,0.621,3.329,0.498,4.783-0.365l7.12-4.227
	c3.329-1.98,7.432-1.98,10.772,0l7.119,4.227c1.455,0.863,3.221,0.986,4.783,0.365c4.718-1.869,9.08-4.48,12.947-7.689
	c1.303-1.084,2.068-2.711,2.068-4.438v-8.432c0-3.951,2.057-7.602,5.386-9.584l7.108-4.215c1.455-0.863,2.445-2.357,2.704-4.072
	c0.377-2.502,0.581-5.068,0.581-7.68c0-2.611-0.193-5.178-0.581-7.679C95.338,37.12,94.358,35.626,92.904,34.763L92.904,34.763z
	 M48.096,76.193c-15.953,0-28.889-13.289-28.889-29.678c0-16.388,12.937-29.678,28.889-29.678c15.952,0,28.889,13.29,28.889,29.678
	C76.984,62.904,64.048,76.193,48.096,76.193z"/>
</svg>
